<svg xmlns="http://www.w3.org/2000/svg" xmlns:xlink="http://www.w3.org/1999/xlink" width="200" zoomAndPan="magnify" viewBox="0 0 150 37.5" height="50" preserveAspectRatio="xMidYMid meet" version="1.0"><defs><g/></defs><g fill="#f5f5f5" fill-opacity="1"><g transform="translate(1.352498, 26.443388)"><g><path d="M 22.8125 -21.5 C 22.40625 -21.5 22.171875 -21.410156 22.109375 -21.234375 L 13.671875 -1.359375 C 13.628906 -1.273438 13.609375 -1.164062 13.609375 -1.03125 C 13.609375 -0.851562 13.664062 -0.726562 13.78125 -0.65625 C 13.90625 -0.59375 14.035156 -0.5625 14.171875 -0.5625 L 14.171875 0 L 8.734375 0 L 8.734375 -0.5625 C 8.867188 -0.5625 8.992188 -0.59375 9.109375 -0.65625 C 9.234375 -0.726562 9.296875 -0.851562 9.296875 -1.03125 C 9.296875 -1.164062 9.273438 -1.273438 9.234375 -1.359375 L 0.796875 -21.234375 C 0.734375 -21.410156 0.5 -21.5 0.09375 -21.5 L 0.09375 -22.0625 L 5.796875 -22.0625 L 5.796875 -21.5 C 5.554688 -21.5 5.394531 -21.4375 5.3125 -21.3125 C 5.238281 -21.195312 5.234375 -21.082031 5.296875 -20.96875 L 11.5625 -5.734375 L 17.640625 -20.96875 C 17.679688 -21.082031 17.617188 -21.195312 17.453125 -21.3125 C 17.285156 -21.4375 17.082031 -21.5 16.84375 -21.5 L 16.84375 -22.0625 L 22.8125 -22.0625 Z M 22.8125 -21.5 "/></g></g></g><g fill="#f5f5f5" fill-opacity="1"><g transform="translate(24.293113, 26.443388)"><g><path d="M 2.171875 -21.171875 C 2.171875 -21.265625 2.09375 -21.34375 1.9375 -21.40625 C 1.78125 -21.46875 1.625 -21.5 1.46875 -21.5 L 1.46875 -22.0625 L 6.875 -22.0625 L 6.875 -21.5 C 6.71875 -21.5 6.5625 -21.46875 6.40625 -21.40625 C 6.25 -21.34375 6.171875 -21.265625 6.171875 -21.171875 L 6.171875 -0.875 C 6.171875 -0.78125 6.25 -0.703125 6.40625 -0.640625 C 6.5625 -0.585938 6.71875 -0.5625 6.875 -0.5625 L 6.875 0 L 1.46875 0 L 1.46875 -0.5625 C 1.625 -0.5625 1.78125 -0.585938 1.9375 -0.640625 C 2.09375 -0.703125 2.171875 -0.78125 2.171875 -0.875 Z M 2.171875 -21.171875 "/></g></g></g><g fill="#f5f5f5" fill-opacity="1"><g transform="translate(32.645844, 26.443388)"><g><path d="M 21.34375 -21.5 C 21.207031 -21.5 21.0625 -21.46875 20.90625 -21.40625 C 20.75 -21.34375 20.671875 -21.265625 20.671875 -21.171875 L 20.671875 -0.875 C 20.671875 -0.78125 20.742188 -0.703125 20.890625 -0.640625 C 21.035156 -0.585938 21.175781 -0.5625 21.3125 -0.5625 L 21.3125 0 L 16.140625 0 L 16.140625 -0.5625 C 16.609375 -0.5625 16.753906 -0.6875 16.578125 -0.9375 L 6.140625 -15.34375 L 6.140625 -0.875 C 6.140625 -0.78125 6.21875 -0.703125 6.375 -0.640625 C 6.53125 -0.585938 6.691406 -0.5625 6.859375 -0.5625 L 6.859375 0 L 1.46875 0 L 1.46875 -0.5625 C 1.625 -0.5625 1.78125 -0.585938 1.9375 -0.640625 C 2.09375 -0.703125 2.171875 -0.78125 2.171875 -0.875 L 2.171875 -21.171875 C 2.171875 -21.265625 2.097656 -21.34375 1.953125 -21.40625 C 1.804688 -21.46875 1.664062 -21.5 1.53125 -21.5 L 1.53125 -22.0625 L 6.859375 -22.0625 L 6.859375 -21.5 C 6.378906 -21.5 6.226562 -21.367188 6.40625 -21.109375 L 17.140625 -6.234375 L 16.765625 -21.171875 C 16.765625 -21.265625 16.679688 -21.34375 16.515625 -21.40625 C 16.347656 -21.46875 16.195312 -21.5 16.0625 -21.5 L 16.0625 -22.0625 L 21.34375 -22.0625 Z M 21.34375 -21.5 "/></g></g></g><g fill="#f5f5f5" fill-opacity="1"><g transform="translate(55.468843, 26.443388)"><g><path d="M 2.171875 -21.171875 C 2.171875 -21.265625 2.09375 -21.34375 1.9375 -21.40625 C 1.78125 -21.46875 1.625 -21.5 1.46875 -21.5 L 1.46875 -22.0625 L 6.875 -22.0625 L 6.875 -21.5 C 6.71875 -21.5 6.5625 -21.46875 6.40625 -21.40625 C 6.25 -21.34375 6.171875 -21.265625 6.171875 -21.171875 L 6.171875 -0.875 C 6.171875 -0.78125 6.25 -0.703125 6.40625 -0.640625 C 6.5625 -0.585938 6.71875 -0.5625 6.875 -0.5625 L 6.875 0 L 1.46875 0 L 1.46875 -0.5625 C 1.625 -0.5625 1.78125 -0.585938 1.9375 -0.640625 C 2.09375 -0.703125 2.171875 -0.78125 2.171875 -0.875 Z M 2.171875 -21.171875 "/></g></g></g><g fill="#f5f5f5" fill-opacity="1"><g transform="translate(63.821573, 26.443388)"><g><path d="M 12.375 0.296875 C 10.28125 0.296875 8.347656 -0.195312 6.578125 -1.1875 C 4.816406 -2.175781 3.425781 -3.546875 2.40625 -5.296875 C 1.382812 -7.054688 0.875 -9.015625 0.875 -11.171875 C 0.875 -13.441406 1.382812 -15.445312 2.40625 -17.1875 C 3.425781 -18.9375 4.796875 -20.285156 6.515625 -21.234375 C 8.242188 -22.191406 10.140625 -22.671875 12.203125 -22.671875 C 14.179688 -22.671875 15.851562 -22.320312 17.21875 -21.625 C 18.582031 -20.925781 19.867188 -19.953125 21.078125 -18.703125 C 21.117188 -18.660156 21.179688 -18.640625 21.265625 -18.640625 C 21.378906 -18.640625 21.582031 -18.726562 21.875 -18.90625 L 22.234375 -18.46875 L 18.171875 -15.265625 L 17.8125 -15.703125 C 17.9375 -15.785156 18.03125 -15.890625 18.09375 -16.015625 C 18.164062 -16.140625 18.160156 -16.234375 18.078125 -16.296875 C 17.253906 -17.097656 16.394531 -17.707031 15.5 -18.125 C 14.613281 -18.550781 13.535156 -18.765625 12.265625 -18.765625 C 10.929688 -18.765625 9.703125 -18.4375 8.578125 -17.78125 C 7.460938 -17.125 6.582031 -16.21875 5.9375 -15.0625 C 5.289062 -13.90625 4.96875 -12.609375 4.96875 -11.171875 C 4.96875 -9.796875 5.3125 -8.546875 6 -7.421875 C 6.6875 -6.296875 7.597656 -5.410156 8.734375 -4.765625 C 9.867188 -4.117188 11.082031 -3.796875 12.375 -3.796875 C 13.59375 -3.796875 14.632812 -4.003906 15.5 -4.421875 C 16.363281 -4.847656 17.175781 -5.484375 17.9375 -6.328125 L 18 -6.4375 C 18 -6.539062 17.953125 -6.65625 17.859375 -6.78125 C 17.773438 -6.90625 17.679688 -7 17.578125 -7.0625 L 17.96875 -7.46875 L 22.34375 -3.796875 L 22 -3.359375 C 21.875 -3.453125 21.722656 -3.535156 21.546875 -3.609375 C 21.378906 -3.691406 21.265625 -3.691406 21.203125 -3.609375 C 19.960938 -2.285156 18.664062 -1.300781 17.3125 -0.65625 C 15.96875 -0.0195312 14.320312 0.296875 12.375 0.296875 Z M 12.375 0.296875 "/></g></g></g><g fill="#f5f5f5" fill-opacity="1"><g transform="translate(86.321043, 26.443388)"><g><path d="M 12.640625 0.46875 C 10.367188 0.46875 8.335938 -0.0507812 6.546875 -1.09375 C 4.753906 -2.144531 3.359375 -3.535156 2.359375 -5.265625 C 1.367188 -7.003906 0.875 -8.847656 0.875 -10.796875 C 0.875 -12.753906 1.34375 -14.640625 2.28125 -16.453125 C 3.226562 -18.265625 4.59375 -19.738281 6.375 -20.875 C 8.164062 -22.007812 10.253906 -22.578125 12.640625 -22.578125 C 14.972656 -22.578125 17.019531 -22.035156 18.78125 -20.953125 C 20.550781 -19.878906 21.90625 -18.445312 22.84375 -16.65625 C 23.789062 -14.863281 24.265625 -12.910156 24.265625 -10.796875 C 24.265625 -8.910156 23.796875 -7.097656 22.859375 -5.359375 C 21.929688 -3.628906 20.582031 -2.222656 18.8125 -1.140625 C 17.050781 -0.0664062 14.992188 0.46875 12.640625 0.46875 Z M 12.671875 -3.40625 C 14.140625 -3.40625 15.457031 -3.710938 16.625 -4.328125 C 17.789062 -4.953125 18.703125 -5.828125 19.359375 -6.953125 C 20.015625 -8.078125 20.34375 -9.359375 20.34375 -10.796875 C 20.34375 -12.304688 20.03125 -13.65625 19.40625 -14.84375 C 18.78125 -16.039062 17.878906 -16.988281 16.703125 -17.6875 C 15.523438 -18.382812 14.132812 -18.734375 12.53125 -18.734375 C 11.0625 -18.734375 9.75 -18.382812 8.59375 -17.6875 C 7.445312 -16.988281 6.550781 -16.03125 5.90625 -14.8125 C 5.257812 -13.601562 4.9375 -12.265625 4.9375 -10.796875 C 4.9375 -9.265625 5.3125 -7.9375 6.0625 -6.8125 C 6.820312 -5.695312 7.796875 -4.847656 8.984375 -4.265625 C 10.171875 -3.691406 11.398438 -3.40625 12.671875 -3.40625 Z M 12.671875 -3.40625 "/></g></g></g><g fill="#0a76cf" fill-opacity="1"><g transform="translate(107.688839, 25.121096)"><g><path d="M 4.171875 3.53125 L 4.171875 -21.0625 L 7.59375 -21.0625 L 7.59375 3.53125 Z M 4.171875 3.53125 "/></g></g></g><g fill="#0a76cf" fill-opacity="1"><g transform="translate(119.453261, 25.121096)"><g><path d="M 12.109375 -11.640625 L 12.109375 -6.171875 L 11.5625 -6.171875 C 11.5625 -6.328125 11.53125 -6.484375 11.46875 -6.640625 C 11.40625 -6.796875 11.328125 -6.875 11.234375 -6.875 C 10.429688 -6.875 9.816406 -6.660156 9.390625 -6.234375 C 8.972656 -5.804688 8.765625 -5.1875 8.765625 -4.375 L 8.765625 -0.875 C 8.765625 2.351562 7.144531 3.96875 3.90625 3.96875 L 1.46875 3.96875 C 1.375 3.96875 1.296875 4.03125 1.234375 4.15625 C 1.171875 4.289062 1.140625 4.414062 1.140625 4.53125 L 0.59375 4.53125 L 0.59375 0.171875 L 1.140625 0.171875 C 1.140625 0.296875 1.171875 0.421875 1.234375 0.546875 C 1.296875 0.671875 1.375 0.734375 1.46875 0.734375 L 3.375 0.765625 C 3.90625 0.765625 4.359375 0.535156 4.734375 0.078125 C 5.109375 -0.367188 5.296875 -0.984375 5.296875 -1.765625 L 5.296875 -5.171875 C 5.296875 -6.347656 5.585938 -7.253906 6.171875 -7.890625 C 6.765625 -8.523438 7.628906 -8.863281 8.765625 -8.90625 C 7.628906 -8.945312 6.765625 -9.285156 6.171875 -9.921875 C 5.585938 -10.554688 5.296875 -11.460938 5.296875 -12.640625 L 5.296875 -16.078125 C 5.296875 -16.867188 5.113281 -17.484375 4.75 -17.921875 C 4.382812 -18.359375 3.925781 -18.578125 3.375 -18.578125 L 1.46875 -18.578125 C 1.375 -18.578125 1.296875 -18.515625 1.234375 -18.390625 C 1.171875 -18.265625 1.140625 -18.144531 1.140625 -18.03125 L 0.59375 -18.03125 L 0.59375 -22.34375 L 1.140625 -22.34375 C 1.140625 -22.226562 1.171875 -22.109375 1.234375 -21.984375 C 1.296875 -21.859375 1.375 -21.796875 1.46875 -21.796875 L 3.90625 -21.796875 C 7.144531 -21.796875 8.765625 -20.175781 8.765625 -16.9375 L 8.765625 -13.4375 C 8.765625 -12.632812 8.972656 -12.015625 9.390625 -11.578125 C 9.816406 -11.148438 10.429688 -10.9375 11.234375 -10.9375 C 11.328125 -10.9375 11.40625 -11.015625 11.46875 -11.171875 C 11.53125 -11.328125 11.5625 -11.484375 11.5625 -11.640625 Z M 12.109375 -11.640625 "/></g></g></g><g fill="#f5f5f5" fill-opacity="1"><g transform="translate(130.725252, 26.443388)"><g><path d="M 17.328125 -4.109375 L 17.328125 0.59375 L 16.765625 0.59375 C 16.765625 0.445312 16.734375 0.304688 16.671875 0.171875 C 16.609375 0.0351562 16.53125 -0.03125 16.4375 -0.03125 L 1.46875 -0.03125 L 1.46875 -0.59375 C 1.601562 -0.59375 1.742188 -0.617188 1.890625 -0.671875 C 2.046875 -0.734375 2.125 -0.8125 2.125 -0.90625 L 2.125 -21.203125 C 2.125 -21.296875 2.046875 -21.375 1.890625 -21.4375 C 1.742188 -21.5 1.601562 -21.53125 1.46875 -21.53125 L 1.46875 -22.078125 L 15.671875 -22.078125 C 15.773438 -22.078125 15.851562 -22.144531 15.90625 -22.28125 C 15.96875 -22.425781 16 -22.566406 16 -22.703125 L 16.5625 -22.703125 L 16.5625 -18 L 16 -18 C 16 -18.132812 15.96875 -18.269531 15.90625 -18.40625 C 15.851562 -18.539062 15.773438 -18.609375 15.671875 -18.609375 L 5.90625 -18.609375 L 5.90625 -13.4375 L 14.234375 -13.4375 C 14.328125 -13.4375 14.40625 -13.503906 14.46875 -13.640625 C 14.53125 -13.773438 14.5625 -13.914062 14.5625 -14.0625 L 15.109375 -14.0625 L 15.109375 -9.34375 L 14.5625 -9.34375 C 14.5625 -9.488281 14.53125 -9.628906 14.46875 -9.765625 C 14.40625 -9.898438 14.328125 -9.96875 14.234375 -9.96875 L 5.90625 -9.96875 L 5.90625 -3.5 L 16.4375 -3.5 C 16.53125 -3.5 16.609375 -3.566406 16.671875 -3.703125 C 16.734375 -3.835938 16.765625 -3.972656 16.765625 -4.109375 Z M 17.328125 -4.109375 "/></g></g></g></svg>